<svg width="46" height="25" xmlns="http://www.w3.org/2000/svg" xmlns:xlink="http://www.w3.org/1999/xlink" xmlns:svgjs="http://svgjs.com/svgjs" viewBox="0 0.233 46 24.533"><svg xmlns="http://www.w3.org/2000/svg" width="46" height="25" viewBox="2.002 2 44.998 23.999" fill="#fff"><path fill="#000" paint-order="stroke fill markers" fill-rule="evenodd" d="M47 6.093c0 7.59-37.526 15.968-40.368 15.968-1.593 0-3.4-.358-3.4-1.79 0-.479.566-1.17 1.56-2.003h-.001l-2.634-4.564a1.161 1.161 0 0 1 .6-1.664l.453-.177a3.075 3.075 0 0 1 2.525.131l4.782 2.469a116.273 116.273 0 0 1 6.2-3.315L7.4 5.253a1.157 1.157 0 0 1 .014-1.977l.763-.467a5.53 5.53 0 0 1 4.26-.634l15.503 3.987c4.833-1.87 9.204-3.148 11.79-3.148.692 0 1.383.018 2.051.065l-4.682 2.06-.112 1.536 7.227-3.24C45.945 3.839 47 4.59 47 6.094zM28.14 19.195l5.782 6.406c.353.39.927.508 1.41.288l.775-.35c1.412-.64 2.244-2.092 2.063-3.6l-.724-6.035a.601.601 0 0 0-.797-.485l-8.258 2.836a.58.58 0 0 0-.251.94z"/></svg></svg>