<svg width="52" height="25" xmlns="http://www.w3.org/2000/svg" xmlns:xlink="http://www.w3.org/1999/xlink" xmlns:svgjs="http://svgjs.com/svgjs" viewBox="0 0.265 52 24.47"><svg xmlns="http://www.w3.org/2000/svg" width="52" height="25" viewBox="2 2.999 51 24" fill="#343434"><path fill="#000" paint-order="stroke fill markers" fill-rule="evenodd" d="M41.95 18.26c2.343 0 4.25 1.96 4.25 4.369 0 2.41-1.907 4.37-4.25 4.37-2.344 0-4.25-1.96-4.25-4.37s1.906-4.37 4.25-4.37zm0 6.99c1.406 0 2.55-1.176 2.55-2.621 0-1.446-1.144-2.622-2.55-2.622s-2.55 1.176-2.55 2.622c0 1.445 1.144 2.622 2.55 2.622zm-39.1-6.99v-5.244c0-.376.234-.712.581-.83l4.796-1.645c1.806-3.144 4.289-6.139 9.776-7.126l.03-.005c10.133-1.44 17.74.909 22.625 6.987 3.635.054 7.346.835 9.53 2.272 1.13.745 1.8 2.04 1.863 3.42l.099 2.17c.469 0 .85.392.85.874v3.496c0 .482-.381.874-.85.874h-3.4c-.472 0-.85-.399-.85-.884l-.001-.014c-.013-3.367-2.67-6.094-5.95-6.094-3.285 0-5.95 2.739-5.95 6.118.062.53-.345.874-.85.874h-15.3c-.47 0-.848-.399-.849-.884v-.014c-.014-3.367-2.672-6.094-5.95-6.094-3.286 0-5.95 2.739-5.95 6.118.061.53-.346.874-.85.874h-3.4A.863.863 0 0 1 2 22.63v-3.496c0-.482.38-.874.85-.874zM25.8 9.955c0 .242.19.438.425.438H37.31c.392 0 .57-.497.281-.769-2.95-2.764-6.7-4.345-11.323-4.765a.438.438 0 0 0-.468.44v4.656zm-10.212.004c.003.24.192.433.425.433h7.662a.431.431 0 0 0 .425-.437V5.185a.433.433 0 0 0-.423-.442 38.159 38.159 0 0 0-5.395.396c-.907.165-1.716.39-2.453.668a.436.436 0 0 0-.275.416l.034 3.737zm-4.436.433h2.31a.431.431 0 0 0 .426-.44l-.022-2.37a.428.428 0 0 0-.687-.343c-.919.69-1.683 1.513-2.364 2.446-.212.29-.017.707.337.707zm1.898 7.866c2.343 0 4.25 1.96 4.25 4.37s-1.907 4.37-4.25 4.37c-2.344 0-4.25-1.96-4.25-4.37s1.906-4.37 4.25-4.37zm0 6.992c1.406 0 2.55-1.177 2.55-2.622 0-1.446-1.144-2.622-2.55-2.622s-2.55 1.176-2.55 2.622c0 1.445 1.144 2.622 2.55 2.622z"/></svg></svg>