<svg width="54" height="25" xmlns="http://www.w3.org/2000/svg" xmlns:xlink="http://www.w3.org/1999/xlink" xmlns:svgjs="http://svgjs.com/svgjs" viewBox="0 0.274 54 24.453"><svg xmlns="http://www.w3.org/2000/svg" width="54" height="25" viewBox="2.001 1.999 52.999 24" fill="#343434"><path fill="#000" paint-order="stroke fill markers" fill-rule="evenodd" d="M2.883 14h51.234a.88.88 0 0 1 .787.503.955.955 0 0 1-.074.961l-7.066 10.154a.867.867 0 0 1-.713.38H7.294a.82.82 0 0 1-.383-.093c-4.324-2.256-4.91-6.813-4.91-10.975-.001-.513.393-.93.882-.93zm40.634 3.23c0 .255.198.461.441.461h.884a.452.452 0 0 0 .441-.462v-.921a.452.452 0 0 0-.441-.463h-.884a.452.452 0 0 0-.441.463v.921zm-3.534 0c0 .255.198.461.442.461h.883a.452.452 0 0 0 .442-.462v-.921a.452.452 0 0 0-.442-.463h-.883a.452.452 0 0 0-.442.463v.921zm-3.533 0c0 .255.198.461.442.461h.883a.452.452 0 0 0 .442-.462v-.921a.452.452 0 0 0-.442-.463h-.883a.452.452 0 0 0-.442.463v.921zm-3.533 0c0 .255.198.461.441.461h.884a.452.452 0 0 0 .441-.462v-.921a.452.452 0 0 0-.441-.463h-.884a.452.452 0 0 0-.441.463v.921zm-3.534 0c0 .255.198.461.442.461h.883a.452.452 0 0 0 .442-.462v-.921a.452.452 0 0 0-.442-.463h-.883a.452.452 0 0 0-.442.463v.921zm-3.533 0c0 .255.198.461.442.461h.883a.452.452 0 0 0 .442-.462v-.921a.452.452 0 0 0-.442-.463h-.883a.452.452 0 0 0-.442.463v.921zm-3.533 0c0 .255.198.461.441.461h.884a.452.452 0 0 0 .441-.462v-.921a.452.452 0 0 0-.441-.463h-.884a.452.452 0 0 0-.441.463v.921zm-3.534 0c0 .255.198.461.442.461h.883a.452.452 0 0 0 .442-.462v-.921a.452.452 0 0 0-.442-.463h-.883a.452.452 0 0 0-.442.463v.921zm-3.533 0c0 .255.198.461.442.461h.883a.452.452 0 0 0 .442-.462v-.921a.452.452 0 0 0-.442-.463h-.883a.452.452 0 0 0-.442.463v.921zm-3.533 0c0 .255.197.461.441.461h.884a.452.452 0 0 0 .441-.462v-.921a.452.452 0 0 0-.441-.463h-.884a.452.452 0 0 0-.441.463v.921zm-3.534 0c0 .255.198.461.442.461h.883a.452.452 0 0 0 .442-.462v-.921a.452.452 0 0 0-.442-.463h-.883a.452.452 0 0 0-.442.463v.921zM9.51 6.91l.579-1.554a.884.884 0 0 1 .822-.588h3.456V2.461c0-.255.197-.462.441-.462h.884c.243 0 .441.206.441.462v2.307h4.417V2.461c0-.255.198-.462.442-.462h.883c.244 0 .442.206.442.462v2.307h4.417V2.461c0-.255.197-.462.441-.462h.884c.243 0 .441.206.441.462v2.307h3.664c.364 0 .691.234.824.588l.578 1.552c.112.303-.102.63-.412.63H9.922c-.311 0-.525-.327-.412-.629zm-3.766 4.627l.523-1.54a.886.886 0 0 1 .832-.614h34.307c.373 0 .707.246.832.614l.523 1.54c.102.3-.11.616-.416.616H6.16c-.305 0-.519-.316-.416-.616z"/></svg></svg>