<svg width="24" height="25" xmlns="http://www.w3.org/2000/svg" xmlns:xlink="http://www.w3.org/1999/xlink" xmlns:svgjs="http://svgjs.com/svgjs" viewBox="0.02 0 23.959 25"><svg xmlns="http://www.w3.org/2000/svg" width="24" height="25" viewBox="1.999 1.998 23.001 24" fill="#343434"><path paint-order="stroke fill markers" fill-rule="evenodd" d="M20.592 1.998c1.114 0 2.017.935 2.017 2.089s-.903 2.088-2.017 2.088c-1.113 0-2.016-.934-2.016-2.088s.903-2.089 2.016-2.089zm3.866 11.32l-2.886-1.334-.578-3.547 1.236 2.849.23-2.765c.064-.775-.491-1.46-1.24-1.526L18.8 6.78c-.746-.065-1.402.503-1.473 1.272l-2.209 1.97a.943.943 0 0 0-.183.225l-2.101 3.56a.964.964 0 0 0 .302 1.3c.05.03.1.056.153.076l-1.18 1.221-1.062-1.099a.846.846 0 0 0-1.23 0l-.405.42a.922.922 0 0 0 0 1.272l1.063 1.1-.535.554-2.012-2.084a.848.848 0 0 0-1.229 0L2.254 21.17a.924.924 0 0 0 0 1.274l1.336 1.382c-.07.182-.11.381-.11.589 0 .873.686 1.583 1.528 1.583.843 0 1.529-.71 1.529-1.583 0-.204-.038-.399-.106-.579l7.698-7.997a.554.554 0 0 0 0-.763.93.93 0 0 0 .26-.284l2.028-3.435.686-.613s-.313 4.582-.31 4.604l.655 4.317-1.747 4.797c-.214.587.072 1.24.639 1.463.567.22 1.199-.075 1.413-.661l1.849-5.078c.067-.184.086-.383.057-.577l-.626-4.128.571.05 1.76 4.033 1.218 5.55c.135.611.722.995 1.312.856.59-.14.96-.748.826-1.359l-1.243-5.662a1.155 1.155 0 0 0-.07-.216L21.9 15.276l.006-.072-1.881-.868c-.772-.356-1.074-1.16-1.047-1.594l.237-3.86.638 3.918c.051.312.25.578.529.707l3.333 1.539a.903.903 0 0 0 1.207-.48.959.959 0 0 0-.463-1.248zm-19.45 11.6a.496.496 0 0 1-.486-.503c0-.278.218-.504.486-.504.269 0 .487.226.487.504a.496.496 0 0 1-.487.504z"/></svg></svg>